<?xml version="1.0" encoding="UTF-8" standalone="no"?>
<!-- Created with Inkscape (http://www.inkscape.org/) -->
<svg
   xmlns:dc="http://purl.org/dc/elements/1.1/"
   xmlns:cc="http://creativecommons.org/ns#"
   xmlns:rdf="http://www.w3.org/1999/02/22-rdf-syntax-ns#"
   xmlns:svg="http://www.w3.org/2000/svg"
   xmlns="http://www.w3.org/2000/svg"
   xmlns:sodipodi="http://sodipodi.sourceforge.net/DTD/sodipodi-0.dtd"
   xmlns:inkscape="http://www.inkscape.org/namespaces/inkscape"
   id="svg2"
   sodipodi:version="0.32"
   inkscape:version="0.46"
   width="85.372152"
   height="68.886766"
   xml:space="preserve"
   sodipodi:docname="logo_UA_U_kl3.svg"
   inkscape:output_extension="org.inkscape.output.svg.inkscape"><metadata
     id="metadata7"><rdf:RDF><cc:Work
         rdf:about=""><dc:format>image/svg+xml</dc:format><dc:type
           rdf:resource="http://purl.org/dc/dcmitype/StillImage" /></cc:Work></rdf:RDF></metadata><defs
     id="defs5"><inkscape:perspective
       sodipodi:type="inkscape:persp3d"
       inkscape:vp_x="0 : 526.18109 : 1"
       inkscape:vp_y="0 : 1000 : 0"
       inkscape:vp_z="744.09448 : 526.18109 : 1"
       inkscape:persp3d-origin="372.04724 : 350.78739 : 1"
       id="perspective9" /></defs><sodipodi:namedview
     inkscape:window-height="674"
     inkscape:window-width="895"
     inkscape:pageshadow="2"
     inkscape:pageopacity="0.0"
     guidetolerance="10.0"
     gridtolerance="10.0"
     objecttolerance="10.0"
     borderopacity="1.0"
     bordercolor="#666666"
     pagecolor="#ffffff"
     id="base"
     showgrid="true"
     inkscape:zoom="90.509668"
     inkscape:cx="12.847604"
     inkscape:cy="68.67103"
     inkscape:window-x="0"
     inkscape:window-y="96"
     inkscape:current-layer="g11"><inkscape:grid
       type="xygrid"
       id="grid2460" /></sodipodi:namedview><g
     id="g11"
     inkscape:groupmode="layer"
     inkscape:label="logo_UA_U_kl3"
     transform="translate(0,-1.113234)"><g
       id="g13"
       transform="translate(0,1.1132376)"><g
         id="g15"
         transform="translate(-332.31392,-497.91881)"><g
           id="g17"
           transform="matrix(0.6486492,0,0,0.6486492,332.31392,497.91881)"><g
             id="g19"><path
               d="M 86.3574,0 C 86.3574,0 86.3574,58.9063 86.3574,58.9063 C 86.3574,79.2344 73.4746,92.1211 55.5566,92.1211 C 37.4473,92.1211 24.3594,79.2344 24.3594,58.9063 C 24.3594,58.9063 24.3594,0 24.3594,0 C 24.3594,0 9.46875,0 9.46875,0 C 9.46875,0 9.46875,0.027344 9.46875,0.027344 C 9.46875,0.027344 0,0.027344 0,0.027344 C 0,0.027344 0,60.1367 0,60.1367 C 0,82.4141 13.8008,98.8477 32.8379,104.067 C 33.1504,104.161 33.498,104.262 33.9043,104.356 C 34.3027,104.45 34.7227,104.512 35.1289,104.602 C 35.9375,104.786 36.7539,104.961 37.5801,105.106 C 44.7871,106.376 52.6387,106.536 59.6973,105.61 C 60.8887,105.5 62.0742,105.356 63.2441,105.172 C 64.3027,104.942 65.3379,104.657 66.3711,104.36 C 66.3809,104.36 66.3906,104.36 66.3926,104.356 C 66.4102,104.352 66.418,104.348 66.4316,104.348 C 66.6797,104.278 66.9336,104.208 67.1758,104.133 C 67.2461,104.114 67.2949,104.09 67.3594,104.071 C 85.3906,98.4063 98.457,82.293 98.457,60.6289 C 98.457,60.6289 98.457,0 98.457,0 C 98.457,0 86.3574,0 86.3574,0"
               style="fill:#7e002f;fill-opacity:1;fill-rule:nonzero;stroke:none"
               id="path21" /></g></g><g
           id="g23"
           transform="matrix(0.6486492,0,0,0.6486492,352.15351,509.67298)"><g
             id="g25"><path
               d="M 44.3868,36.6875 C 11.9395,21.1328 0,29.8594 0,29.8594 C 0,29.8594 15.6641,0 49.0899,13.9844 C 85.1841,29.0703 95.7131,27.3203 100.495,18.8516 C 104.543,34.6797 85.5651,56.4102 44.3868,36.6875"
               style="fill:#003d64;fill-opacity:1;fill-rule:nonzero;stroke:none"
               id="path27" /></g></g></g></g></g></svg>
