<?xml version="1.0" encoding="UTF-8" standalone="no"?>
<!-- Created with Inkscape (http://www.inkscape.org/) -->
<svg
   xmlns:dc="http://purl.org/dc/elements/1.1/"
   xmlns:cc="http://creativecommons.org/ns#"
   xmlns:rdf="http://www.w3.org/1999/02/22-rdf-syntax-ns#"
   xmlns:svg="http://www.w3.org/2000/svg"
   xmlns="http://www.w3.org/2000/svg"
   xmlns:sodipodi="http://sodipodi.sourceforge.net/DTD/sodipodi-0.dtd"
   xmlns:inkscape="http://www.inkscape.org/namespaces/inkscape"
   id="svg2"
   sodipodi:version="0.32"
   inkscape:version="0.46"
   width="523.75"
   height="50"
   xml:space="preserve"
   sodipodi:docname="logo_UA_tekst_kl.svg"
   inkscape:output_extension="org.inkscape.output.svg.inkscape"><metadata
     id="metadata7"><rdf:RDF><cc:Work
         rdf:about=""><dc:format>image/svg+xml</dc:format><dc:type
           rdf:resource="http://purl.org/dc/dcmitype/StillImage" /></cc:Work></rdf:RDF></metadata><defs
     id="defs5"><inkscape:perspective
       sodipodi:type="inkscape:persp3d"
       inkscape:vp_x="0 : 526.18109 : 1"
       inkscape:vp_y="0 : 1000 : 0"
       inkscape:vp_z="744.09448 : 526.18109 : 1"
       inkscape:persp3d-origin="372.04724 : 350.78739 : 1"
       id="perspective9" /><clipPath
       clipPathUnits="userSpaceOnUse"
       id="clipPath19"><path
         d="M 0,391.926 L 0,0 L 4188.91,0 L 4188.91,391.926"
         id="path21" /></clipPath></defs><sodipodi:namedview
     inkscape:window-height="680"
     inkscape:window-width="640"
     inkscape:pageshadow="2"
     inkscape:pageopacity="0.0"
     guidetolerance="10.0"
     gridtolerance="10.0"
     objecttolerance="10.0"
     borderopacity="1.0"
     bordercolor="#666666"
     pagecolor="#ffffff"
     id="base"
     showgrid="false"
     inkscape:zoom="1.0463007"
     inkscape:cx="261.875"
     inkscape:cy="25"
     inkscape:window-x="0"
     inkscape:window-y="0"
     inkscape:current-layer="g11" /><g
     id="g11"
     inkscape:groupmode="layer"
     inkscape:label="logo_UA_tekst_kl"
     transform="matrix(1.25,0,0,-1.25,0,50)"><g
       id="g13"
       transform="scale(0.1,0.1)"><g
         id="g15"><g
           id="g17"
           clip-path="url(#clipPath19)"><path
             d="M 113.848,86.1328 C 29.4727,86.1328 0,125.859 0,203.555 L 0,391.926 L 37.0508,391.926 L 37.0508,205.77 C 37.0508,145.508 57.1484,116.484 116.074,116.484 C 177.227,116.484 198.203,148.633 198.203,209.773 L 198.203,391.926 L 233.457,391.926 L 233.457,209.344 C 233.457,136.133 196.426,86.1328 113.848,86.1328"
             style="fill:#003d64;fill-opacity:1;fill-rule:nonzero;stroke:none"
             id="path23" /><path
             d="M 433.008,88.8281 L 433.008,238.797 C 433.008,256.648 427.207,270.945 405.332,270.945 C 387.91,270.945 361.582,258.445 338.379,235.223 L 338.379,88.8281 L 302.656,88.8281 L 302.656,296.379 L 333.008,299.074 C 335.684,293.254 337.48,278.523 337.93,263.348 C 366.504,290.145 392.832,300.852 417.832,300.852 C 456.211,300.852 469.16,281.648 469.16,244.148 L 469.16,88.8281 L 433.008,88.8281"
             style="fill:#003d64;fill-opacity:1;fill-rule:nonzero;stroke:none"
             id="path25" /><path
             d="M 538.789,88.8281 L 538.789,296.379 L 574.512,298.625 L 574.512,88.8281 L 538.789,88.8281 z M 536.562,343.703 L 536.562,378.078 L 576.289,378.078 L 576.289,343.703 L 536.562,343.703"
             style="fill:#003d64;fill-opacity:1;fill-rule:nonzero;stroke:none"
             id="path27" /><path
             d="M 707.969,145.078 C 710.645,136.133 711.543,129.883 711.543,124.062 C 711.543,129.883 712.871,137.031 716.016,145.078 L 775.371,295.949 L 809.297,295.949 L 724.492,88.8281 L 693.691,88.8281 L 614.668,295.949 L 652.168,295.949 L 707.969,145.078"
             style="fill:#003d64;fill-opacity:1;fill-rule:nonzero;stroke:none"
             id="path29" /><path
             d="M 973.145,220.047 C 973.145,253.523 958.418,273.176 931.172,273.176 C 899.043,273.176 876.27,253.973 871.367,215.145 L 973.145,215.145 L 973.145,220.047 z M 923.145,86.1328 C 870.469,86.1328 834.316,112.461 834.316,182.109 C 834.316,259.324 873.145,300.402 934.297,300.402 C 980.293,300.402 1005.3,268.254 1005.3,222.723 C 1005.3,213.348 1005.3,204.414 1003.95,190.156 L 869.57,190.156 C 869.57,137.031 889.219,114.688 931.621,114.688 C 953.496,114.688 974.922,122.734 997.246,136.562 L 1007.95,112.461 C 984.746,95.9766 958.418,86.1328 923.145,86.1328"
             style="fill:#003d64;fill-opacity:1;fill-rule:nonzero;stroke:none"
             id="path31" /><path
             d="M 1170.88,268.254 C 1164.18,268.699 1161.51,268.699 1157.93,268.699 C 1136.51,268.699 1130.26,264.246 1099.01,208.445 L 1099.01,88.8281 L 1063.31,88.8281 L 1063.31,296.379 L 1091.43,299.523 C 1094.56,292.805 1096.33,268.699 1096.78,243.699 C 1119.56,291.473 1131.61,300.402 1152.58,300.402 C 1161.06,300.402 1169.54,299.074 1174.01,297.727 L 1170.88,268.254"
             style="fill:#003d64;fill-opacity:1;fill-rule:nonzero;stroke:none"
             id="path33" /><path
             d="M 1266.41,85.2344 C 1239.63,85.2344 1215.53,91.4844 1194.54,103.086 L 1203.46,131.211 C 1226.24,120.039 1249.89,112.93 1270.86,112.93 C 1301.68,112.93 1313.29,125.859 1313.29,140.586 C 1313.29,156.211 1307.93,165.156 1269.09,177.656 C 1215.96,194.609 1203.91,210.223 1203.91,240.129 C 1203.91,274.969 1232.04,300.852 1281.59,300.852 C 1307.49,300.852 1328.46,295.949 1345.43,286.121 L 1335.61,258.879 C 1322.66,265.594 1298.99,270.945 1278.91,270.945 C 1248.11,270.945 1239.18,258.445 1239.18,242.82 C 1239.18,225.398 1245.43,218.719 1285.16,206.199 C 1337.84,189.258 1348.09,172.266 1348.09,145.508 C 1348.09,113.789 1324.89,85.2344 1266.41,85.2344"
             style="fill:#003d64;fill-opacity:1;fill-rule:nonzero;stroke:none"
             id="path35" /><path
             d="M 1403.44,88.8281 L 1403.44,296.379 L 1439.17,298.625 L 1439.17,88.8281 L 1403.44,88.8281 z M 1401.22,343.703 L 1401.22,378.078 L 1440.94,378.078 L 1440.94,343.703 L 1401.22,343.703"
             style="fill:#003d64;fill-opacity:1;fill-rule:nonzero;stroke:none"
             id="path37" /><path
             d="M 1563.25,85.6641 C 1529.32,85.6641 1513.27,100.859 1513.27,135.703 L 1513.27,268.699 L 1485.14,270.047 L 1487.37,294.602 L 1513.72,295.949 L 1518.62,362.902 L 1549.42,366.027 L 1549.42,296.379 L 1617.72,296.379 L 1615.49,268.254 L 1549.42,268.254 L 1549.42,138.789 C 1549.42,121.406 1555.22,115.156 1571.74,115.156 C 1585.14,115.156 1598.97,118.281 1615.49,125.43 L 1623.07,99.9609 C 1606.55,90.5859 1586.47,85.6641 1563.25,85.6641"
             style="fill:#003d64;fill-opacity:1;fill-rule:nonzero;stroke:none"
             id="path39" /><path
             d="M 1790.02,220.047 C 1790.02,253.523 1775.3,273.176 1748.05,273.176 C 1715.92,273.176 1693.15,253.973 1688.25,215.145 L 1790.02,215.145 L 1790.02,220.047 z M 1740.02,86.1328 C 1687.35,86.1328 1651.2,112.461 1651.2,182.109 C 1651.2,259.324 1690.02,300.402 1751.2,300.402 C 1797.15,300.402 1822.17,268.254 1822.17,222.723 C 1822.17,213.348 1822.17,204.414 1820.83,190.156 L 1686.47,190.156 C 1686.47,137.031 1706.1,114.688 1748.5,114.688 C 1770.38,114.688 1791.8,122.734 1814.13,136.562 L 1824.85,112.461 C 1801.63,95.9766 1775.3,86.1328 1740.02,86.1328"
             style="fill:#003d64;fill-opacity:1;fill-rule:nonzero;stroke:none"
             id="path41" /><path
             d="M 1880.18,88.8281 L 1880.18,296.379 L 1915.9,298.625 L 1915.9,88.8281 L 1880.18,88.8281 z M 1877.95,343.703 L 1877.95,378.078 L 1917.68,378.078 L 1917.68,343.703 L 1877.95,343.703"
             style="fill:#003d64;fill-opacity:1;fill-rule:nonzero;stroke:none"
             id="path43" /><path
             d="M 2040,85.6641 C 2006.08,85.6641 1990,100.859 1990,135.703 L 1990,268.699 L 1961.88,270.047 L 1964.13,294.602 L 1990.45,295.949 L 1995.36,362.902 L 2026.18,366.027 L 2026.18,296.379 L 2094.46,296.379 L 2092.23,268.254 L 2026.18,268.254 L 2026.18,138.789 C 2026.18,121.406 2031.98,115.156 2048.48,115.156 C 2061.88,115.156 2075.71,118.281 2092.23,125.43 L 2099.83,99.9609 C 2083.31,90.5859 2063.21,85.6641 2040,85.6641"
             style="fill:#003d64;fill-opacity:1;fill-rule:nonzero;stroke:none"
             id="path45" /><path
             d="M 2281.49,208.445 L 2377.04,208.445 L 2335.96,329.875 C 2332.84,339.25 2331.49,348.176 2331.49,353.977 C 2331.49,348.176 2329.26,338.352 2326.14,329.875 L 2281.49,208.445 z M 2418.09,88.8281 L 2385.51,181.641 L 2272.56,181.641 L 2236.86,88.8281 L 2201.14,88.8281 L 2315.86,391.926 L 2350.69,391.926 L 2458.27,88.8281 L 2418.09,88.8281"
             style="fill:#7e002f;fill-opacity:1;fill-rule:nonzero;stroke:none"
             id="path47" /><path
             d="M 2631.45,88.8281 L 2631.45,238.797 C 2631.45,256.648 2625.65,270.945 2603.79,270.945 C 2586.37,270.945 2560.04,258.445 2536.82,235.223 L 2536.82,88.8281 L 2501.1,88.8281 L 2501.1,296.379 L 2531.47,299.074 C 2534.15,293.254 2535.94,278.523 2536.37,263.348 C 2564.95,290.145 2591.27,300.852 2616.27,300.852 C 2654.67,300.852 2667.62,281.648 2667.62,244.148 L 2667.62,88.8281 L 2631.45,88.8281"
             style="fill:#7e002f;fill-opacity:1;fill-rule:nonzero;stroke:none"
             id="path49" /><path
             d="M 2790.83,85.6641 C 2756.9,85.6641 2740.83,100.859 2740.83,135.703 L 2740.83,268.699 L 2712.7,270.047 L 2714.95,294.602 L 2741.27,295.949 L 2746.18,362.902 L 2777,366.027 L 2777,296.379 L 2845.28,296.379 L 2843.05,268.254 L 2777,268.254 L 2777,138.789 C 2777,121.406 2782.8,115.156 2799.3,115.156 C 2812.7,115.156 2826.53,118.281 2843.05,125.43 L 2850.65,99.9609 C 2834.13,90.5859 2814.03,85.6641 2790.83,85.6641"
             style="fill:#7e002f;fill-opacity:1;fill-rule:nonzero;stroke:none"
             id="path51" /><path
             d="M 2958.23,88.8281 L 2928.76,88.8281 L 2864.91,295.949 L 2900.18,295.949 L 2944.38,146.406 C 2947.06,137.461 2947.95,131.211 2947.95,125.43 C 2947.95,131.211 2949.73,138.789 2952.41,146.406 L 3001.08,295.949 L 3030.98,297.727 L 3080.98,146.406 C 3084.11,137.461 3084.99,131.211 3084.99,125.43 C 3084.99,131.211 3086.33,138.789 3089.01,146.406 L 3137.23,295.949 L 3168.91,295.949 L 3099.28,88.8281 L 3068.48,88.8281 L 3017.58,239.246 C 3014.91,246.844 3014.01,254.426 3014.01,260.223 C 3014.01,254.426 3012.68,247.273 3009.99,239.246 L 2958.23,88.8281"
             style="fill:#7e002f;fill-opacity:1;fill-rule:nonzero;stroke:none"
             id="path53" /><path
             d="M 3334.54,220.047 C 3334.54,253.523 3319.81,273.176 3292.56,273.176 C 3260.43,273.176 3237.66,253.973 3232.76,215.145 L 3334.54,215.145 L 3334.54,220.047 z M 3284.54,86.1328 C 3231.86,86.1328 3195.71,112.461 3195.71,182.109 C 3195.71,259.324 3234.54,300.402 3295.69,300.402 C 3341.66,300.402 3366.68,268.254 3366.68,222.723 C 3366.68,213.348 3366.68,204.414 3365.34,190.156 L 3230.98,190.156 C 3230.98,137.031 3250.61,114.688 3293.01,114.688 C 3314.89,114.688 3336.31,122.734 3358.64,136.562 L 3369.34,112.461 C 3346.14,95.9766 3319.81,86.1328 3284.54,86.1328"
             style="fill:#7e002f;fill-opacity:1;fill-rule:nonzero;stroke:none"
             id="path55" /><path
             d="M 3532.27,268.254 C 3525.57,268.699 3522.9,268.699 3519.32,268.699 C 3497.9,268.699 3491.65,264.246 3460.4,208.445 L 3460.4,88.8281 L 3424.69,88.8281 L 3424.69,296.379 L 3452.82,299.523 C 3455.94,292.805 3457.72,268.699 3458.17,243.699 C 3480.94,291.473 3492.97,300.402 3513.97,300.402 C 3522.45,300.402 3530.92,299.074 3535.4,297.727 L 3532.27,268.254"
             style="fill:#7e002f;fill-opacity:1;fill-rule:nonzero;stroke:none"
             id="path57" /><path
             d="M 3665.75,271.395 C 3643.42,271.395 3623.34,257.996 3610.84,244.148 L 3610.84,123.164 C 3622.45,117.383 3638.52,112.461 3654.58,112.461 C 3694.75,112.461 3716.63,142.812 3716.63,196.836 C 3716.63,241.473 3701.45,271.395 3665.75,271.395 z M 3653.25,86.6016 C 3636.27,86.6016 3622,88.8281 3610.84,95.0391 L 3610.84,2.22656 L 3574.22,0 L 3574.22,296.379 L 3604.6,299.523 C 3607.27,293.254 3609.05,282.098 3609.5,271.824 C 3626.9,289.695 3650.57,300.852 3676,300.852 C 3725.57,300.852 3753.7,268.699 3753.7,199.531 C 3753.7,136.562 3722.43,86.6016 3653.25,86.6016"
             style="fill:#7e002f;fill-opacity:1;fill-rule:nonzero;stroke:none"
             id="path59" /><path
             d="M 3932.23,220.047 C 3932.23,253.523 3917.5,273.176 3890.28,273.176 C 3858.13,273.176 3835.38,253.973 3830.45,215.145 L 3932.23,215.145 L 3932.23,220.047 z M 3882.25,86.1328 C 3829.58,86.1328 3793.4,112.461 3793.4,182.109 C 3793.4,259.324 3832.23,300.402 3893.4,300.402 C 3939.38,300.402 3964.38,268.254 3964.38,222.723 C 3964.38,213.348 3964.38,204.414 3963.03,190.156 L 3828.68,190.156 C 3828.68,137.031 3848.33,114.688 3890.71,114.688 C 3912.6,114.688 3934.01,122.734 3956.33,136.562 L 3967.06,112.461 C 3943.83,95.9766 3917.5,86.1328 3882.25,86.1328"
             style="fill:#7e002f;fill-opacity:1;fill-rule:nonzero;stroke:none"
             id="path61" /><path
             d="M 4152.74,88.8281 L 4152.74,238.797 C 4152.74,256.648 4146.94,270.945 4125.08,270.945 C 4107.66,270.945 4081.33,258.445 4058.11,235.223 L 4058.11,88.8281 L 4022.41,88.8281 L 4022.41,296.379 L 4052.76,299.074 C 4055.43,293.254 4057.23,278.523 4057.68,263.348 C 4086.24,290.145 4112.58,300.852 4137.56,300.852 C 4175.96,300.852 4188.91,281.648 4188.91,244.148 L 4188.91,88.8281 L 4152.74,88.8281"
             style="fill:#7e002f;fill-opacity:1;fill-rule:nonzero;stroke:none"
             id="path63" /></g></g></g></g></svg>